<?xml version="1.0" encoding="UTF-8"?>
<svg width="127.49mm" height="27.018mm" version="1.1" viewBox="0 0 127.49 27.018" xmlns="http://www.w3.org/2000/svg" xmlns:cc="http://creativecommons.org/ns#" xmlns:dc="http://purl.org/dc/elements/1.1/" xmlns:rdf="http://www.w3.org/1999/02/22-rdf-syntax-ns#">
 <metadata>
  <rdf:RDF>
   <cc:Work rdf:about="">
    <dc:format>image/svg+xml</dc:format>
    <dc:type rdf:resource="http://purl.org/dc/dcmitype/StillImage"/>
    <dc:title/>
   </cc:Work>
  </rdf:RDF>
 </metadata>
 <g transform="translate(-18.168 -101.76)">
  <path d="m29.201 128.62c-5.384-1.1702-9.3351-4.9552-10.635-10.188-1.1371-4.5781 0.19551-9.2557 3.6026-12.645 2.004-1.9937 4.1795-3.1739 6.9051-3.746 8.112-1.7026 16.021 4.6684 16.091 12.962 0.05056 6.0099-3.2784 10.882-8.8745 12.988-1.8449 0.69444-5.3546 1.0056-7.0893 0.62861zm6.3499-1.8419c5.1529-1.8475 8.2549-6.2607 8.2549-11.744 0-6.346-5.6434-11.915-12.065-11.907-6.6673 9e-3 -12.189 5.5227-12.163 12.146 0.02067 5.398 3.4341 10.015 8.6072 11.641 2.5336 0.79659 4.8848 0.75301 7.3659-0.13654zm-10.541-3.217c0-0.89422 0.61742-1.1801 2.1597-1.0001 0.75935 0.0887 0.88859 0.0281 0.89031-0.41679 0.0038-0.98916 0.74135-10.62 0.81924-10.697 0.10273-0.10273 2.4917-1.1261 2.6287-1.1261 0.05827 0 0.10594 2.7863 0.10594 6.1918v6.1918l1.2065-0.12959c0.66356-0.0713 1.2272-0.14466 1.2526-0.16307 0.02535-0.0184-0.13036-2.524-0.34603-5.568s-0.3385-5.5882-0.27295-5.6537c0.06555-0.0656 0.29845-0.0504 0.51756 0.0337 0.50025 0.19197 0.60402 0.90741 0.97541 6.725l0.30049 4.707 0.8495-0.0992c1.5037-0.17555 2.1209 0.11679 2.1209 1.0046 0 0.73275-0.04624 0.77212-0.69849 0.59474-0.38417-0.10447-0.92709-0.15929-1.2065-0.12181-0.48514 0.0651-1.1082 0.0769-2.794 0.0529-0.41909-6e-3 -1.162-6e-3 -1.651 0-0.48894 6e-3 -1.2319 6e-3 -1.651 0-0.41909-6e-3 -1.162-2e-3 -1.651 9e-3 -0.48894 0.0108-1.1747-0.0142-1.524-0.0556-0.34924-0.0414-0.94931 0.0104-1.3335 0.11511-0.65234 0.17782-0.69849 0.13855-0.69849-0.5943zm-1.1173-11.78c-0.09145-0.59372-0.23308-1.451-0.31473-1.905l-0.14846-0.8255h3.9829c3.8922 0 3.981 0.0121 3.9017 0.52898-0.06424 0.41868-0.78664 0.81586-3.4649 1.905-1.861 0.75681-3.4752 1.376-3.587 1.376-0.11181 0-0.27812-0.48577-0.36956-1.0795zm11.785-0.30654c-2.4936-1.0628-3.1924-1.4681-3.2561-1.8886-0.07952-0.52449-3e-3 -0.53537 3.7636-0.53537 3.5393 0 3.8349 0.0353 3.7214 0.4445-0.06782 0.24448-0.19804 1.1017-0.28939 1.905-0.09933 0.87349-0.28634 1.4539-0.4653 1.4441-0.16457-9e-3 -1.7279-0.62536-3.4742-1.3696zm-6.8579-3.313c0-0.20955-0.17145-0.381-0.38099-0.381-0.23255 0-0.38099-0.23688-0.38099-0.60799 0-0.51127 0.26305-0.7133 1.6536-1.27 0.90951-0.3641 1.8164-0.66201 2.0152-0.66201s1.0549 0.30069 1.9023 0.66821c1.2634 0.54793 1.5407 0.77651 1.5407 1.27 0 0.3656-0.14954 0.6018-0.38099 0.6018-0.20955 0-0.38099 0.17145-0.38099 0.381 0 0.21167-0.22578 0.381-0.50799 0.381-0.38872 0-0.50799-0.16933-0.50799-0.72123 0-0.52637-0.17478-0.80086-0.64694-1.016-0.99912-0.45523-1.131-0.37112-1.131 0.72123v1.016h-1.397c-1.0724 0-1.397-0.0885-1.397-0.381zm19.558 17.987c0-0.20222 0.3012-0.3344 0.76199-0.3344h0.76199v-6.604h-0.76199c-0.44265 0-0.76199-0.13384-0.76199-0.31938 0-0.22739 0.58528-0.32804 2.032-0.34943 1.5698-0.0232 2.032 0.0494 2.032 0.31938 0 0.231-0.3058 0.34943-0.90226 0.34943h-0.90226l0.15354 2.667 4.6989 0.146v-2.8131h-0.91015c-0.61502 0-0.87597-0.10295-0.80472-0.3175 0.06987-0.21041 0.76237-0.33616 2.0531-0.37283 1.5681-0.0446 1.9477 0.0173 1.9477 0.3175 0 0.25676-0.27676 0.37283-0.88899 0.37283h-0.88899v6.604h0.88899c0.62088 0 0.88899 0.11491 0.88899 0.381 0 0.3048-0.38099 0.381-1.905 0.381-1.524 0-1.905-0.0762-1.905-0.381 0-0.254 0.254-0.381 0.76199-0.381h0.76199v-3.048h-4.8259v3.048h0.88899c0.58277 0 0.88899 0.1197 0.88899 0.34748 0 0.26611-0.47585 0.34442-2.032 0.3344-1.5044-0.01-2.032-0.0999-2.032-0.34748zm10.922 0.0573c0-0.26387 0.24306-0.39169 0.74487-0.39169 0.55526 0 0.786-0.14548 0.90643-0.5715 0.08885-0.31432 0.31312-0.9144 0.49837-1.3335 0.18525-0.4191 0.45392-1.0478 0.59706-1.397 0.14313-0.34925 0.55521-1.2851 0.91573-2.0798 0.36052-0.79462 0.65548-1.6317 0.65548-1.8601 0-1.1993 1.7177 0.58371 1.7594 1.8262 0.01021 0.30435 0.17232 0.70712 0.36025 0.89505 0.18793 0.18792 0.66784 1.2819 1.0665 2.4311 0.7105 2.0483 0.7413 2.0894 1.5633 2.0894 0.57601 0 0.8385 0.11928 0.8385 0.381 0 0.30879-0.40922 0.381-2.159 0.381-1.7498 0-2.159-0.0722-2.159-0.381 0-0.26609 0.26811-0.381 0.88899-0.381 0.62088 0 0.88899-0.1149 0.88899-0.381 0-0.20955-0.10671-0.381-0.23713-0.381s-0.27329-0.31432-0.3175-0.6985c-0.07787-0.67675-0.134-0.70084-1.8029-0.77379l-1.7225-0.0753-0.37296 0.89263c-0.5055 1.2098-0.4759 1.3703 0.26993 1.4636 0.35359 0.0442 0.66791 0.19467 0.69849 0.33437 0.03228 0.14747-0.77005 0.28512-1.9129 0.32819-1.6364 0.0617-1.9685 8e-3 -1.9685-0.3175zm6.0957-3.5032c-1.15e-4 -0.17462-0.21559-0.88462-0.47883-1.5778-0.48569-1.2789-1.0449-1.8159-1.0449-1.0034 0 0.24511-0.15526 0.62611-0.34503 0.84666-0.18976 0.22055-0.46956 0.77248-0.62178 1.2265l-0.27675 0.8255h1.3838c0.93779 0 1.3837-0.10232 1.3836-0.3175zm5.2564 3.7111c-0.28789-0.28789 0.09041-0.59957 0.72774-0.59957h0.62v-6.604h-0.76199c-0.41909 0-0.76199-0.0914-0.76199-0.2032 0-0.87635 2.3961-1.1456 3.0806-0.34619 0.21974 0.25664 0.4815 0.79324 0.58169 1.1924 0.10019 0.3992 0.34089 1.1057 0.53488 1.57 0.19399 0.46429 0.3291 0.88168 0.30025 0.92752-0.02886 0.0459 0.07465 0.2438 0.23001 0.43989 0.15536 0.1961 0.35756 0.67087 0.44933 1.055 0.25139 1.0524 0.52414 0.85163 1.032-0.75953 0.25278-0.80192 0.6737-1.8575 0.93537-2.3457 0.26168-0.48824 0.47578-1.0717 0.47578-1.2966 0-0.73957 0.86346-1.2496 2.1155-1.2496 1.0172 0 1.1865 0.0725 1.1865 0.508 0 0.39511-0.16933 0.508-0.76199 0.508h-0.76199v6.604h0.76199c0.50799 0 0.76199 0.127 0.76199 0.381 0 0.30238-0.36688 0.381-1.778 0.381s-1.778-0.0786-1.778-0.381c0-0.24628 0.24698-0.38103 0.69849-0.38109l0.69849-9e-5v-2.9632c0-1.9569-0.09636-2.9954-0.28376-3.0578-0.15607-0.052-0.35155 0.24435-0.4344 0.65863-0.08285 0.41427-0.36813 1.2474-0.63394 1.8514-0.67038 1.5233-1.2559 3.0241-1.4442 3.7017-0.24805 0.89254-0.699 0.6431-1.0332-0.5715-0.31736-1.1534-2.053-5.4523-2.2028-5.4561-0.10477-3e-3 -0.1905 1.3096-0.1905 2.9161v2.921h0.63499c0.39511 0 0.63499 0.14394 0.63499 0.381 0 0.3015-0.36218 0.381-1.7356 0.381-0.9546 0-1.8087-0.0731-1.8981-0.16243zm12.778-0.21857c0-0.27516 0.28222-0.381 1.016-0.381h1.016v-6.604h-1.0346c-0.84842 0-1.0193-0.08-0.94954-0.4445 0.07303-0.38163 0.44131-0.45486 2.604-0.51774 1.3854-0.0403 2.6985 6e-3 2.918 0.10356 0.21949 0.0972 0.54489 0.15309 0.72311 0.12411 0.17822-0.029 0.66399 0.18937 1.0795 0.48523 0.88354 0.62914 1.0268 1.8145 0.31439 2.6017-0.42229 0.46663-0.41148 0.50891 0.254 0.99369 0.55629 0.40523 0.69505 0.70825 0.69505 1.5178 0 1.2532-0.37522 1.9941-1.0099 1.9941-0.26624 0-0.5547 0.1143-0.64104 0.254-0.09205 0.14895-1.5689 0.254-3.5709 0.254-2.8653 0-3.414-0.0612-3.414-0.381zm7.4155-1.0635c0.39181-0.37539 0.71239-0.75875 0.71239-0.85191 0-0.0932-0.30564-0.49919-0.67921-0.90227-0.60772-0.65576-0.87505-0.74278-2.54-0.82686l-1.8608-0.094v1.277c0 0.70234-0.06938 1.4578-0.15417 1.6788-0.13247 0.34521 0.12483 0.40177 1.8276 0.40177 1.8046 0 2.0454-0.061 2.6941-0.68252zm-2.0816-3.3645c0-0.13036 0.3445-0.22722 0.76557-0.21524 0.93035 0.0264 1.0212-0.0539 1.0874-0.96219 0.06888-0.94521-0.75983-1.3709-2.6784-1.3758l-1.4605-4e-3v2.794h1.143c0.62864 0 1.143-0.10665 1.143-0.23701zm7.6655 3.967c-1.0247-1.0572-1.3156-2.0641-1.3156-4.5538v-1.9702h-0.78061c-0.60672 0-0.76154-0.099-0.69501-0.4445 0.0724-0.37604 0.37792-0.4445 1.9836-0.4445 1.6057 0 1.9112 0.0685 1.9836 0.4445 0.0686 0.35638-0.0943 0.4445-0.82201 0.4445h-0.9076v2.2479c0 2.0956 0.0517 2.3193 0.76358 3.302 0.66268 0.91482 0.89016 1.0541 1.7215 1.0541 2.0021 0 2.8489-1.3328 2.8489-4.484v-2.12h-1.016c-0.55879 0-1.016-0.0914-1.016-0.2032 0-0.56631 0.74716-0.8128 2.4638-0.8128 1.6848 0 1.8542 0.0464 1.8542 0.508 0 0.39511-0.16933 0.508-0.76199 0.508h-0.76199l-2e-3 1.9685c-2e-3 2.535-0.35653 3.7651-1.3464 4.6692-0.65846 0.60152-1.0219 0.72827-2.0878 0.72827-1.1277 0-1.3935-0.10622-2.1066-0.84197zm8.5903 0.46097c0-0.26609 0.26811-0.381 0.88898-0.381h0.88899v-6.5733l-0.95249-0.0788c-0.64228-0.0532-0.95248-0.20292-0.95248-0.45984 0-0.31787 0.50911-0.3804 3.0725-0.37738 2.9676 3e-3 3.1041 0.0278 4.0004 0.71142 1.171 0.8932 1.2869 2.1066 0.28947 3.0315-0.60563 0.56158-0.6251 0.66279-0.37802 1.9656 0.29066 1.5327 0.521 1.7714 1.715 1.777 0.56271 3e-3 0.82549 0.12518 0.82549 0.38489 0 0.26682-0.2691 0.381-0.89792 0.381-1.1234 0-2.1496-0.65-2.1514-1.3627-7.6e-4 -0.29826-0.1219-0.97619-0.26917-1.5065l-0.26776-0.96423-3.1446 0.1504-0.1524 2.921h0.90166c0.63214 0 0.90166 0.11389 0.90166 0.381 0 0.30879-0.40922 0.381-2.159 0.381s-2.159-0.0722-2.159-0.381zm6.0959-4.445c0-0.1397 0.14287-0.22542 0.3175-0.1905 0.19612 0.0392 0.34657-0.28285 0.39355-0.8425 0.0643-0.76536-0.0263-0.95266-0.58344-1.2065-0.36273-0.16528-1.3399-0.3005-2.1715-0.3005h-1.512v1.2277c0 0.67522 0.0762 1.3039 0.16933 1.397 0.27335 0.27335 3.3866 0.19552 3.3866-0.0847zm6.1594 4.3662c-0.45402-0.21661-0.82549-0.54465-0.82549-0.72899s-0.10522-0.33516-0.23382-0.33516c-0.12859 0-0.30884-0.34159-0.40053-0.75908-0.0917-0.4175-0.27223-0.8243-0.40118-0.904-0.39379-0.24338-0.26216-1.4885 0.26894-2.5437 0.69752-1.3859 1.0088-1.7186 2.075-2.2174 1.1415-0.53405 1.9684-0.54933 2.917-0.0539 0.64581 0.33729 0.75919 0.33729 1.0095 0 0.56142-0.75647 0.86098-0.40261 0.86098 1.017 0 1.0724-0.0885 1.397-0.38099 1.397-0.20955 0-0.381-0.16315-0.381-0.36256 0-1.1264-2.6451-1.8324-4.0157-1.0718-0.87952 0.48806-1.5686 1.698-1.5705 2.7574-2e-3 1.0371 0.72254 2.7248 1.1737 2.7347 0.15752 3e-3 0.42869 0.1777 0.60259 0.38725 0.19015 0.22912 0.7458 0.381 1.3938 0.381 1.3082 0 2.4161-0.76549 2.4161-1.6694 0-0.59928-0.0999-0.66325-1.1205-0.71768-0.26706-0.0142-0.53376-0.16876-0.59266-0.34339-0.079-0.2342 0.36494-0.3175 1.692-0.3175 1.4621 0 1.7991 0.0744 1.7991 0.39697 0 0.26588-0.18872 0.37072-0.57149 0.3175-0.4973-0.0692-0.58199 0.0485-0.65232 0.9065-0.0445 0.54229 0.0413 1.1081 0.1905 1.2573 0.14922 0.14923 0.27132 0.41992 0.27132 0.60153 0 0.42263-0.93623 0.43355-1.0886 0.0127-0.092-0.254-0.22253-0.254-0.65271 0-0.71722 0.42348-2.758 0.34668-3.7831-0.14235zm-66.34-17.13 0.04173-3.3655-1.2992-0.0768c-1.2518-0.074-1.2992-0.10412-1.2992-0.8255v-0.74872h6.8579v0.762c0 0.74506-0.02822 0.762-1.27 0.762h-1.27v6.858h-1.803zm6.3332-0.8255v-4.191h0.76199c0.7508 0 0.76199 0.0198 0.76199 1.3462 0 0.74041 0.13716 1.4834 0.3048 1.651 0.17256 0.17256 0.99905 0.3048 1.905 0.3048h1.6002v-3.302h1.778v8.382h-1.778v-3.8322l-3.6829 0.1492 0.10184 3.683h-1.7528zm9.3979 0v-4.191h5.3339v1.524h-1.7356c-0.9546 0-1.7921 0.0565-1.8612 0.12556-0.06905 0.069-0.07513 0.4691-0.01351 0.889l0.11206 0.76344h1.7491c1.6964 0 1.7491 0.0191 1.7491 0.635 0 0.61538-0.05362 0.635-1.7356 0.635-0.9546 0-1.7893 0.0537-1.8549 0.11924-0.06558 0.0656-0.07212 0.52278-0.01455 1.016l0.1047 0.89676h3.5004v1.778h-5.3339zm6.858 4.1428c2.54e-4 -0.18342 1.0099-2.6818 1.372-3.3952 0.21673-0.42701 0.43375-0.99851 0.48226-1.27 0.04851-0.2715 0.27976-0.93621 0.5139-1.4772 0.23414-0.54093 0.4257-1.092 0.4257-1.2246 0-0.47819 0.74073-0.96684 1.4656-0.96684 0.65062 0 0.77882 0.1303 1.0622 1.0795 0.17725 0.59373 0.40174 1.1366 0.49887 1.2065 0.09713 0.0699 0.50391 1.0414 0.90396 2.159 0.40005 1.1176 0.84755 2.1115 0.99446 2.2087 0.1469 0.0972 0.19198 0.25181 0.10017 0.34362-0.09181 0.0918-0.06275 0.44092 0.06457 0.77581 0.21942 0.57712 0.18052 0.60888-0.74574 0.60888-0.94552 0-0.98257-0.0333-1.1415-1.0275l-0.1643-1.0275-1.6772 0.075c-1.6705 0.0747-1.6784 0.0786-1.9636 0.96399-0.25202 0.78228-0.40075 0.89847-1.2389 0.96784-0.52387 0.0434-0.95243 0.0434-0.95236 0zm4.7073-4.4603c-0.09627-0.52387-0.27048-1.0511-0.38713-1.1717-0.36106-0.37308-0.76436 0.0855-0.76436 0.86916 0 0.41086-0.1143 0.74701-0.254 0.74701-0.1397 0-0.254 0.1143-0.254 0.254s0.41276 0.254 0.91725 0.254h0.91725zm6.4684 1.0795v-3.429h-1.27c-1.2418 0-1.27-0.0169-1.27-0.762v-0.762h3.4289c1.8859 0 3.4305 0.0857 3.4324 0.1905 2e-3 0.10478 0.07239 0.44768 0.15662 0.762 0.14552 0.54302 0.08204 0.5715-1.2734 0.5715h-1.4266v6.858h-1.778zm5.8419-0.762v-4.191h5.3339v1.524h-3.5881l0.15918 1.651 1.651 7e-3c1.6064 6e-3 1.6531 0.0253 1.7313 0.6985l0.0804 0.6919h-3.5897v2.032h3.7079l-0.10378 0.889-0.10379 0.889h-5.2783zm7.4598 3.6195c0.0842-0.31432 0.15472-2.2003 0.15663-4.191l3e-3 -3.6195h2.1299c3.1743 0 3.9111 0.50719 3.9481 2.7176 0.0148 0.8853-0.12249 1.2-0.80764 1.8512-0.76536 0.72747-0.79311 0.80907-0.38099 1.1204 0.24447 0.18467 0.44703 0.43747 0.45014 0.56176 3e-3 0.1243 0.22916 0.51175 0.50234 0.861 0.74152 0.94799 0.64863 1.3159-0.30867 1.2226-0.6731-0.0656-1.0042-0.3475-1.8832-1.6036-0.64512-0.9218-1.2508-1.524-1.5328-1.524-0.41209 0-0.45588 0.18436-0.3771 1.5875l0.0891 1.5875h-1.0712c-0.98696 0-1.0592-0.045-0.91809-0.5715zm4.2577-4.5474c0.92248-1.0636 0.41202-1.7391-1.3143-1.7391h-1.179l-0.0346 2.286h1.0267c0.73487 0 1.1616-0.15545 1.501-0.54686zm5.2155 4.9495c-0.4215-0.42151-0.1239-0.84667 0.59266-0.84667h0.76199v-6.604h-0.76199c-0.50799 0-0.76199-0.127-0.76199-0.381 0-0.31628 0.48955-0.381 2.8819-0.381 3.1957 0 4.0052 0.24665 5.107 1.5561 0.55218 0.65624 0.64693 1.0178 0.64693 2.4684 0 2.0463-0.75968 3.443-2.0237 3.7207-0.42044 0.0923-0.82964 0.2734-0.90934 0.40235-0.1642 0.2657-5.2728 0.32583-5.5335 0.0651zm6.3549-1.342c0.85904-0.52381 1.4659-1.3971 1.2328-1.7742-0.0772-0.12488-0.0112-0.27009 0.14655-0.32268 0.19132-0.0638 0.22733-0.44803 0.10812-1.1536-0.13215-0.78222-0.43843-1.2926-1.175-1.9581-0.94094-0.85009-1.095-0.90008-2.7735-0.90008h-1.7772v6.604l1.7145-9.4e-4c1.2493-6.8e-4 1.934-0.13482 2.5238-0.49441zm3.5086 1.2574c-0.26745-0.43275 0.12315-0.762 0.90398-0.762h0.747v-6.604h-0.91015c-0.61509 0-0.87594-0.10293-0.8046-0.3175 0.0771-0.23183 1.1758-0.33635 4.0724-0.38738l3.9668-0.0699 0.17283 0.95889c0.095 0.52738 0.28621 1.1018 0.4248 1.2764 0.17016 0.21441 0.15006 0.4403-0.0619 0.69571-0.45519 0.54847-0.6832 0.28603-0.87756-1.0101l-0.17187-1.1461h-5.1962l0.0446 1.1201c0.0574 1.4421 0.14042 1.5519 1.1524 1.5228 0.67168-0.0193 0.87335-0.14869 0.98785-0.63371 0.0791-0.3352 0.33888-0.64701 0.57722-0.69291 0.37768-0.0727 0.43336 0.1637 0.43336 1.8402 0 1.058-0.0914 1.9236-0.2032 1.9236-0.35894 0-0.81279-0.59568-0.81279-1.0668 0-0.36406-0.20695-0.4572-1.016-0.4572h-1.016v3.048h5.0145l0.16847-1.27c0.11172-0.8422 0.28881-1.27 0.52573-1.27 0.44205 0 0.73128 0.42236 0.42068 0.61433-0.12586 0.0778-0.31037 0.68576-0.41004 1.351-0.0997 0.66529-0.31287 1.2936-0.4738 1.3962-0.45229 0.28847-7.4772 0.23379-7.6585-0.0596zm12.672-0.24648c-1.6028-0.71322-2.2565-1.8188-2.2573-3.8175-7.6e-4 -1.8884 0.58248-2.9855 1.9496-3.6675 0.9407-0.46929 3.027-0.52457 3.4598-0.0917 0.23706 0.23706 0.37252 0.23706 0.60959 0 0.66835-0.66837 0.96518-0.33248 0.96518 1.0922 0 1.0724-0.0885 1.397-0.38099 1.397-0.20955 0-0.381-0.15603-0.381-0.34674s-0.23689-0.64791-0.52642-1.016c-0.45094-0.57328-0.72035-0.66925-1.8787-0.66925-1.2299 0-1.4235 0.0812-2.1405 0.89783-0.6964 0.79317-0.7883 1.0774-0.7883 2.4384 0 1.4238 0.0678 1.6084 0.89457 2.4352 0.85364 0.85365 0.95999 0.88917 2.3238 0.77606 1.1806-0.0979 1.5147-0.23586 1.9206-0.79299 0.27021-0.37095 0.71378-0.67446 0.98571-0.67446 0.47446 0 0.47165 0.0308-0.0695 0.76273-0.60393 0.81688-2.3446 1.7888-3.1509 1.7593-0.27022-0.01-0.96113-0.22701-1.5354-0.48254zm6.5654 0.20528c-0.53492-0.53493-0.354-0.7208 0.70159-0.7208h1.016v-6.604h-0.88899c-0.63125 0-0.88899-0.11343-0.88899-0.39127 0-0.32645 0.34375-0.37905 2.075-0.3175 1.379 0.049 2.1103 0.18028 2.1801 0.39127 0.071 0.21449-0.19019 0.3175-0.80504 0.3175h-0.91016v1.524c0 1.6654 0.20921 1.857 0.97061 0.889 0.27472-0.34925 0.60348-0.635 0.7306-0.635 0.12711 0 0.61885-0.40005 1.0928-0.889 0.64607-0.66658 0.75386-0.889 0.43082-0.889-0.23695 0-0.43082-0.17145-0.43082-0.381 0-0.3048 0.38099-0.381 1.905-0.381s1.905 0.0762 1.905 0.381c0 0.25749-0.25763 0.381-0.7947 0.381-0.55147 0-1.0959 0.2721-1.7787 0.889-0.54119 0.48895-1.098 0.889-1.2373 0.889-0.1393 0-0.25327 0.16793-0.25327 0.37318 0 0.49404 0.95276 2.3061 1.4136 2.6886 0.2004 0.16632 0.36437 0.45986 0.36437 0.6523 0 0.19245 0.11429 0.3499 0.25399 0.3499s0.254 0.17145 0.254 0.381c0 0.26759 0.27017 0.381 0.90761 0.381 0.72767 0 0.89064 0.0881 0.82201 0.4445-0.0724 0.37604-0.37793 0.4445-1.9836 0.4445-1.5765 0-1.912-0.0724-1.9803-0.42726-0.061-0.31692 0.12868-0.44812 0.73455-0.508l0.81683-0.0807-0.63977-0.762c-0.35188-0.4191-0.71562-0.9906-0.80831-1.27-0.0927-0.2794-0.32646-0.71554-0.51946-0.96919-0.30472-0.40048-0.42794-0.4172-0.93588-0.127-1.0507 0.60028-1.2396 0.91691-1.2396 2.078 0 1.1062 0.028 1.1478 0.82549 1.2246 0.52906 0.051 0.82549 0.21641 0.82549 0.46059 0 0.50552-3.6498 0.69355-4.1305 0.2128z" style="fill:#ce172d;stroke-width:.254"/>
 </g>
</svg>
